<?xml version="1.0" standalone="no"?>
<!DOCTYPE svg PUBLIC "-//W3C//DTD SVG 20010904//EN"
 "http://www.w3.org/TR/2001/REC-SVG-20010904/DTD/svg10.dtd">
<svg version="1.0" xmlns="http://www.w3.org/2000/svg"
 width="1112.000000pt" height="1112.000000pt" viewBox="0 0 1112.000000 1112.000000"
 preserveAspectRatio="xMidYMid meet">
<metadata>
Created by potrace 1.11, written by Peter Selinger 2001-2013
</metadata>
<g transform="translate(0.000000,1112.000000) scale(0.100000,-0.100000)"
fill="#000000" stroke="none">
<path d="M3541 7185 c-8 -9 -44 -83 -139 -285 -22 -47 -72 -152 -112 -235 -40
-82 -92 -190 -115 -240 -43 -90 -132 -277 -208 -435 -22 -47 -42 -91 -43 -98
-1 -8 -10 -22 -18 -31 -9 -10 -16 -22 -16 -27 0 -6 -15 -40 -34 -76 -19 -37
-31 -69 -28 -72 3 -3 0 -6 -6 -6 -7 0 -12 -5 -12 -11 0 -6 -20 -52 -44 -102
-24 -51 -45 -96 -46 -102 -1 -5 -7 -17 -14 -25 -7 -8 -20 -36 -30 -62 -10 -27
-21 -48 -25 -48 -4 0 -8 -6 -8 -12 0 -7 -36 -85 -79 -173 -43 -88 -78 -162
-79 -165 -1 -5 -21 -47 -151 -315 -31 -66 -58 -122 -59 -125 -1 -7 -50 -109
-112 -233 -29 -59 -53 -114 -53 -122 0 -8 -4 -15 -10 -15 -5 0 -10 -4 -10 -10
0 -5 -34 -80 -75 -166 -42 -86 -73 -160 -69 -163 3 -3 90 -7 192 -7 210 -2
242 -3 225 -11 -7 -2 -13 -10 -13 -17 0 -7 -6 -18 -12 -25 -7 -6 -13 -15 -14
-19 -3 -24 -17 -62 -24 -62 -4 0 -11 -11 -14 -25 -4 -14 -11 -25 -16 -25 -5 0
-7 -9 -5 -20 2 -11 1 -20 -3 -20 -4 0 -13 -14 -21 -32 -11 -24 -11 -33 -3 -36
7 -2 10 -8 6 -13 -3 -5 2 -9 10 -9 9 0 16 -6 16 -14 0 -8 10 -18 23 -22 12 -4
180 -8 373 -8 279 -1 350 2 347 12 -3 7 -1 18 5 25 6 6 10 14 11 17 0 7 4 21
37 115 15 44 27 86 27 93 0 6 4 12 9 12 5 0 6 5 3 10 -3 6 -1 10 5 10 6 0 9 4
6 9 -4 5 -1 22 6 38 6 15 12 30 12 33 1 3 5 11 9 18 5 6 5 12 1 12 -3 0 1 11
10 25 9 14 14 25 12 25 -3 0 4 21 14 46 11 25 18 50 15 54 -3 5 1 10 7 12 7 3
13 11 14 19 2 26 16 59 26 59 5 0 7 4 3 10 -3 5 -1 17 4 27 23 40 48 105 50
129 0 8 6 12 11 9 6 -3 10 -2 10 3 0 4 38 7 85 6 57 -1 85 2 85 10 0 7 3 8 8
1 11 -16 135 -17 125 -2 -5 9 -3 9 8 1 8 -6 63 -10 134 -10 l120 1 23 -70 c45
-135 122 -271 186 -328 12 -10 35 -31 52 -47 17 -15 41 -31 52 -35 12 -3 22
-11 22 -16 0 -5 6 -9 13 -9 8 0 24 -12 38 -27 13 -14 17 -23 9 -19 -8 4 -7 1
3 -7 10 -9 18 -18 17 -21 -1 -9 31 -54 62 -86 15 -15 24 -31 21 -34 -4 -3 -2
-6 4 -6 6 0 33 -22 59 -48 86 -85 234 -160 326 -165 21 -1 38 -4 38 -7 0 -3
45 -5 100 -5 55 0 100 3 100 6 0 3 14 4 30 3 17 -1 32 2 35 7 3 4 11 6 18 3 7
-2 30 2 50 11 20 8 37 13 37 10 0 -2 31 12 69 33 91 49 168 123 208 199 12 23
10 28 -27 64 -21 21 -37 39 -34 39 3 0 -4 10 -15 22 -11 11 -18 25 -15 30 3 4
1 8 -4 8 -9 0 -37 50 -34 63 1 4 -3 7 -10 7 -6 0 -9 2 -6 6 3 3 -3 27 -13 53
-10 27 -15 51 -12 55 4 3 0 6 -7 6 -7 0 -11 3 -7 6 3 3 2 17 -4 31 -11 30 -22
82 -21 106 0 9 -2 17 -6 17 -4 0 -8 12 -8 28 -1 15 -4 47 -8 72 -7 46 -17 160
-19 218 -1 17 -5 32 -9 32 -4 0 -4 10 0 23 8 20 8 43 2 50 -6 5 -14 85 -25
247 -2 36 -5 66 -6 68 -1 1 -2 19 -3 40 -1 20 -5 43 -9 50 -5 7 -4 12 3 12 6
0 8 5 3 12 -4 7 -8 30 -10 50 -2 21 -4 56 -6 78 -2 22 -6 42 -10 46 -3 4 -2
14 3 24 5 10 7 20 4 23 -6 5 -14 80 -18 162 -1 22 -5 46 -9 53 -5 7 -3 12 3
12 6 0 8 5 3 13 -8 12 -14 78 -16 179 -1 32 -4 58 -7 58 -4 0 -10 70 -14 173
0 15 -3 27 -6 27 -3 0 -5 19 -6 43 -1 46 -12 202 -14 202 -1 0 -9 92 -12 150
-1 17 -7 33 -13 37 -6 5 -6 8 2 8 9 0 10 7 3 25 -6 16 -6 25 1 25 6 0 6 6 1
18 -5 9 -9 29 -8 45 1 15 -1 27 -4 27 -3 0 -5 24 -5 53 1 28 -4 55 -10 59 -6
5 -5 8 3 8 7 0 10 5 6 11 -6 11 -12 64 -17 163 -2 40 -8 56 -38 89 l-36 41
-126 1 c-69 0 -129 4 -133 8 -8 8 -9 15 -29 242 -2 17 -3 32 -4 35 -2 11
-1092 6 -1100 -5z m266 -1883 c2 -48 4 -130 6 -182 l2 -95 -93 0 c-50 0 -92 4
-92 8 0 5 6 21 13 35 8 15 21 43 29 62 9 19 23 51 31 70 9 19 13 38 11 42 -3
4 -1 8 4 8 9 0 25 37 23 53 -1 4 4 7 10 7 5 0 7 5 4 10 -3 6 -1 10 6 10 7 0 9
3 6 7 -4 3 -2 12 4 20 6 7 8 13 4 13 -4 0 -2 7 5 15 7 9 15 13 18 10 3 -3 7
-44 9 -93z"/>
<path d="M6001 7180 c-9 -16 -19 -69 -27 -134 -2 -21 -7 -43 -11 -49 -3 -5 -7
-24 -9 -41 -2 -17 -6 -42 -9 -56 -3 -14 -8 -38 -10 -55 -6 -38 -13 -70 -15
-70 -2 0 -4 -11 -19 -100 -6 -33 -13 -71 -16 -85 -10 -52 -37 -186 -41 -210
-6 -33 -32 -167 -40 -205 -3 -16 -9 -50 -14 -75 -5 -25 -11 -58 -15 -75 -3
-16 -8 -41 -10 -55 -4 -23 -8 -49 -20 -110 -3 -14 -7 -36 -10 -50 -3 -14 -11
-59 -20 -100 -14 -70 -21 -109 -32 -170 -5 -29 -11 -59 -16 -80 -2 -8 -8 -37
-12 -65 -5 -27 -10 -52 -10 -55 -2 -6 -15 -74 -22 -105 -2 -11 -6 -36 -9 -55
-3 -19 -9 -48 -14 -65 -5 -16 -11 -48 -14 -70 -3 -22 -8 -53 -12 -70 -3 -16
-7 -39 -9 -50 -1 -11 -3 -20 -5 -20 -1 0 -4 -11 -5 -25 -3 -23 -12 -70 -20
-110 -2 -8 -4 -15 -5 -15 -1 0 -3 -11 -5 -25 -3 -25 -20 -122 -30 -170 -3 -14
-8 -38 -11 -55 -3 -16 -9 -48 -14 -70 -5 -22 -12 -56 -15 -75 -3 -19 -8 -42
-10 -50 -2 -8 -7 -31 -10 -50 -5 -35 -11 -65 -21 -110 -3 -14 -7 -34 -9 -45
-2 -11 -9 -47 -15 -80 -7 -33 -12 -70 -13 -82 -1 -13 -4 -23 -7 -23 -3 0 -6
-12 -7 -27 -1 -16 -4 -37 -5 -48 -3 -19 4 -20 162 -21 91 -1 169 -3 173 -3 5
-1 6 -10 2 -20 -3 -10 -8 -32 -10 -47 -4 -27 -7 -44 -20 -109 -3 -14 -7 -37
-10 -52 -3 -16 -7 -33 -9 -39 -2 -6 14 -31 36 -55 25 -27 43 -39 45 -31 3 6
10 9 16 5 7 -4 240 -7 519 -8 442 0 509 2 514 15 7 15 11 33 17 68 1 9 5 22 8
27 4 6 5 18 4 28 -2 9 0 17 4 17 4 0 6 12 5 28 -1 15 1 32 5 37 7 13 11 31 14
72 1 18 5 33 8 33 3 0 6 14 7 30 0 17 4 40 8 53 4 12 7 30 5 40 -1 9 2 17 7
17 5 0 8 11 7 25 -2 14 0 27 4 30 4 2 7 18 6 35 -1 16 1 30 5 30 4 0 8 12 8
28 2 26 9 67 12 67 1 0 3 9 5 20 1 11 6 38 10 60 5 22 8 48 9 58 0 9 3 17 6
17 3 0 6 10 6 23 0 12 11 74 24 137 13 63 23 123 22 133 0 9 4 17 9 17 6 0 8
4 5 8 -3 4 0 28 5 53 9 40 18 87 23 129 1 9 5 20 8 25 3 6 4 18 3 28 -2 9 0
17 5 17 4 0 7 8 7 18 0 39 3 43 21 33 10 -5 24 -6 32 -1 8 5 21 5 31 -1 10 -5
20 -5 23 -1 4 7 90 8 121 1 6 -1 12 0 15 1 13 5 82 5 85 -1 3 -3 0 -33 -5 -65
-5 -32 -12 -79 -15 -104 -3 -25 -8 -58 -11 -75 -5 -31 -10 -73 -19 -160 -11
-104 -14 -126 -20 -134 -3 -5 -1 -12 4 -15 5 -4 6 -18 2 -34 -8 -31 -7 -181 3
-230 13 -64 48 -143 90 -199 54 -72 73 -88 153 -126 46 -21 67 -37 74 -56 6
-14 9 -26 8 -26 -2 0 15 -27 38 -60 50 -72 115 -145 129 -145 5 0 16 -9 24
-20 8 -11 19 -20 24 -20 5 0 17 -7 27 -16 9 -8 26 -16 38 -17 11 -1 21 -6 21
-11 0 -5 3 -6 7 -3 3 4 11 2 18 -3 6 -5 22 -12 36 -14 13 -3 24 -5 24 -6 0 -1
23 -4 50 -6 106 -12 315 -6 315 8 0 4 7 5 15 2 8 -3 20 -2 27 2 7 5 20 9 28 9
8 0 21 4 28 8 7 5 24 11 39 13 15 3 34 11 42 17 8 7 17 11 20 11 3 -1 17 3 31
8 14 5 26 9 28 8 1 0 10 6 18 15 9 8 20 13 25 10 5 -4 9 -2 9 4 0 6 16 18 35
27 40 18 40 19 21 55 -28 55 -39 126 -40 277 -1 67 1 122 4 122 3 0 7 33 8 73
1 39 4 86 7 102 2 17 6 44 8 61 2 17 7 36 11 43 4 6 2 11 -5 11 -7 0 -8 4 -2
13 5 6 10 28 12 48 2 34 8 74 11 74 1 0 3 23 6 50 9 84 9 90 15 100 3 6 7 26
8 45 3 47 7 70 15 100 3 14 8 41 10 60 3 19 6 35 7 35 1 0 3 14 4 30 2 17 4
30 5 30 3 0 21 102 23 133 0 6 3 12 6 12 3 0 7 19 8 42 1 22 8 45 15 49 11 7
11 9 0 9 -7 0 -10 4 -7 10 9 14 20 65 30 140 4 24 9 48 11 52 5 8 13 43 19 88
2 14 4 25 5 25 2 0 8 27 14 65 3 14 9 42 14 62 5 20 7 39 4 42 -3 4 -1 6 4 6
5 0 10 10 11 23 3 37 19 126 29 159 3 10 7 29 10 43 4 25 13 71 17 90 2 6 5
15 8 20 3 6 5 22 4 38 0 15 2 27 6 27 4 0 6 8 4 18 -1 9 0 22 4 27 6 12 11 30
15 66 1 14 6 32 11 39 4 7 10 29 12 49 1 20 4 47 6 61 1 14 5 27 9 30 4 3 9
23 12 45 2 22 13 78 24 125 10 47 20 88 20 93 1 4 2 8 3 10 4 12 9 48 11 72 1
17 4 35 7 40 3 6 7 18 8 28 2 9 4 25 6 35 1 9 5 22 8 27 3 6 4 20 3 33 0 12 1
22 5 22 3 0 6 11 6 24 0 13 -2 24 -5 23 -3 0 -19 12 -36 29 l-32 29 -168 0
c-104 0 -168 4 -167 10 0 6 4 26 7 45 3 19 10 58 15 85 18 85 22 109 24 130 2
20 -4 20 -535 20 l-537 1 -5 -26 c-3 -14 -7 -36 -10 -50 -2 -14 -12 -63 -21
-110 -17 -89 -20 -106 -29 -155 -3 -16 -7 -39 -9 -50 -6 -28 -20 -107 -22
-125 -1 -8 -5 -25 -9 -37 -4 -12 -9 -37 -10 -55 -4 -33 -11 -70 -21 -118 -3
-14 -8 -37 -10 -51 -2 -14 -11 -64 -20 -110 -17 -86 -32 -171 -41 -224 -3 -16
-14 -73 -25 -126 -10 -53 -21 -112 -23 -130 -3 -19 -5 -34 -6 -34 -2 0 -6 -22
-13 -63 -3 -19 -7 -36 -10 -38 -8 -8 -117 -9 -117 -1 0 5 -5 5 -11 1 -9 -5
-106 -8 -181 -5 -16 1 -23 41 -7 41 4 0 7 10 7 23 -1 37 6 77 13 77 3 0 7 15
7 33 3 40 6 59 13 72 4 6 6 22 5 38 -1 15 2 27 6 27 4 0 5 9 3 20 -2 11 -1 20
4 20 4 0 7 10 8 23 0 12 4 36 8 52 4 17 7 40 7 53 0 12 3 22 7 22 6 0 8 9 12
65 1 14 5 28 10 31 4 2 6 11 3 18 -3 8 -1 17 4 20 5 3 8 19 6 36 -2 16 0 30 4
30 5 0 8 16 7 35 0 19 2 35 5 35 4 0 7 6 8 13 3 34 14 96 24 132 6 22 12 49
13 60 4 41 17 108 24 129 5 11 6 28 3 36 -5 15 -59 69 -71 71 -3 1 -78 3 -166
4 -88 1 -163 3 -166 4 -5 1 17 127 30 176 0 3 1 6 2 8 1 4 9 62 12 82 2 20 -5
20 -531 20 -469 1 -535 -1 -541 -15z"/>
</g>
</svg>
